<svg enable-background="new 0 0 48 48" viewBox="0 0 48 48" xmlns="http://www.w3.org/2000/svg" xmlns:xlink="http://www.w3.org/1999/xlink"><linearGradient id="a"><stop offset="0" stop-color="#fff"/><stop offset="1" stop-color="#fff" stop-opacity=".1765"/></linearGradient><linearGradient id="b" gradientUnits="userSpaceOnUse" x1="40.5729" x2="40.5729" xlink:href="#a" y1="5.8591" y2="28.317"/><linearGradient id="c" gradientUnits="userSpaceOnUse" x1="23.719" x2="23.719" xlink:href="#a" y1="15.4224" y2="29.7884"/><path d="m44.8 5.859s-9.851.82-9.409 18.789c0 0-1.424 11.963 9.925 11.568 0 0-8.817-5.725-2.713-16.405 0 0 1.421-2.005.247-7.199.002-.001-.08-4.055 1.95-6.753z" fill="#558ecf"/><path d="m44.8 5.859s-7.837 7.276-6.118 22.458l-2.336-3.332s-.195-15.373 8.454-19.126z" fill="url(#b)" fill-opacity=".4718"/><ellipse cx="11.049" cy="20.373" fill="#e9fafa" rx="7.732" ry="10.223"/><path d="m12.049 17.15c2.391 0 4.636.466 6.589 1.279-.687-4.715-3.822-8.279-7.589-8.279-4.05 0-7.367 4.119-7.699 9.36 2.359-1.473 5.391-2.36 8.699-2.36z" fill="#5892d2"/><circle cx="6.005" cy="20.888" fill="#231815" r="1.747"/><path d="m40.021 26.785c0 6.2-10.453 18.209-19.342 18.209s-16.308-8.091-16.308-18.08 7.093-18.085 15.983-18.085 19.667 13.39 19.667 17.956z" fill="#2562b2"/><ellipse cx="23.719" cy="23.893" fill="#5090d8" rx="7.395" ry="7.127"/><ellipse cx="23.719" cy="22.605" fill="url(#c)" rx="6.693" ry="7.183"/><ellipse cx="23.719" cy="18.669" fill="#e9fafa" rx="6.405" ry="9.648"/><path d="m23.714 17.713c2.731 0 5.11 1.018 6.392 2.529.542-6.816-2.971-11.221-6.387-11.221-3.413 0-6.95 4.363-6.387 11.209 1.285-1.504 3.658-2.517 6.382-2.517z" fill="#5892d2"/><circle cx="27.177" cy="21.145" fill="#231815" r="1.877"/><circle cx="27.973" cy="20.737" fill="#fff" r=".644"/><path d="m5.402 32.986s5.327 5.769 16.735 1.037c0 0 1.882-.92 2.478-.77 0 0-1.082 8.103-13.093 8.586 0 0-6.224.002-6.805-5.26.001 0-1.71-2.196.685-3.593z" fill="#5090d8"/><path d="m5.402 32.986s5.327 5.769 16.735 1.037c0 0 1.882-.92 2.478-.77 0 0-2.991 4.689-9.716 5.653-3.001.43-7.885-.182-10.182-2.327.001 0-1.71-2.196.685-3.593z" fill="#60a0e6"/></svg>