<svg height="48" viewBox="0 0 48 48" width="48" xmlns="http://www.w3.org/2000/svg" xmlns:xlink="http://www.w3.org/1999/xlink"><filter id="a" color-interpolation-filters="sRGB" height="1.072" width="1.072" x="-.036" y="-.036"><feGaussianBlur stdDeviation=".63"/></filter><g transform="translate(0 -1004.3622)"><g fill-rule="evenodd"><path d="m10.03125 1008.2997-6.9999999 16 5.673828.4063-4.673828 7.5937 6.0156249 5.1895v1.1601l-3.0156249 9.6504 12.1445309-4.25 8.855469 6.25 17-7v-24l-13-10-4.974609 5.5273-4.025391-4.5273z" filter="url(#a)" opacity=".3"/><path d="m4 1031.3622 8-13 15 12-2 11-10.910318-1.296z" fill="#f2912c"/><path d="m7 1047.3622 5-16 15 9z" fill="#9f5ba1"/><path d="m10 1007.3622 13 2 8 9v7l-28-2z" fill="#f94275"/><path d="m32 1008.3622 13 10v24l-17 7-17-12 3-9z" fill="#1c81ef"/></g><path d="m11.018951 1014.3935c-.556101 0-1.003906.4389-1.003906.9843v26.0313c0 .5454.447805.9844 1.003906.9844h25.992188c.5561 0 1.003906-.439 1.003906-.9844v-26.0313c0-.5454-.447806-.9843-1.003906-.9843z"/><path d="m14.001455 1018.3436 6.005859.01-.0039 2.0079h-1.996094l-.0059 6.0078 2.013672-.01v2h-6.003906v-2h1.996093l.0078-6.0098-2.013672.012v-2.0156zm12.982422.01h2v6c0 2.216-1.784 4-4 4-1.5465 0-2.867033-.878-3.533203-2.1562l1.9375-.6445c.36427.485.939693.8027 1.595703.8027 1.108 0 2-.892 2-2z" fill="#fff"/><rect fill="#fff" height="2" rx=".000017" width="10" x="14.020365" y="1033.3828"/></g></svg>