<svg xmlns="http://www.w3.org/2000/svg" viewBox="0 0 64 64" width="64px" height="64px"><linearGradient id="~Wppy9MVaCSsh3sf8tnAfa" x1="32" x2="32" y1="4" y2="61.733" gradientUnits="userSpaceOnUse"><stop offset="0" stop-color="#1a6dff"/><stop offset="1" stop-color="#c822ff"/></linearGradient><path fill="url(#~Wppy9MVaCSsh3sf8tnAfa)" d="M32,58C17.663,58,6,46.336,6,32S17.663,6,32,6s26,11.664,26,26S46.337,58,32,58z M32,8	C18.767,8,8,18.767,8,32s10.767,24,24,24s24-10.767,24-24S45.233,8,32,8z"/><linearGradient id="~Wppy9MVaCSsh3sf8tnAfb" x1="33" x2="33" y1="8.588" y2="51.747" gradientUnits="userSpaceOnUse"><stop offset="0" stop-color="#6dc7ff"/><stop offset="1" stop-color="#e6abff"/></linearGradient><path fill="url(#~Wppy9MVaCSsh3sf8tnAfb)" d="M32.238,10c-4.984,0-9.024,3.975-9.024,8.879s4.04,8.879,9.024,8.879	c3.316,0,6.206-1.765,7.775-4.386c2.291,0.015,4.607,0.61,6.704,1.873c6.14,3.698,8.142,11.718,4.384,17.76l-0.236,0.369	c2.687-4.131,1.392-9.748-2.805-12.391s-9.778-1.437-12.465,2.692l0,0c-1.933,2.973-1.831,6.645-0.063,9.458	c-1.053,1.597-2.472,2.994-4.245,4.035c-6.182,3.628-14.335,1.72-18.022-4.365L13,42.356c2.45,4.271,8.105,5.696,12.445,3.286	s5.874-7.825,3.424-12.096l0,0c-1.688-2.943-4.827-4.574-8.035-4.515c-1.036-1.84-1.63-3.954-1.63-6.206	c0-6.777,5.345-12.311,12.111-12.779L32.238,10z"/></svg>